<?xml version="1.0" standalone="no"?>
<!DOCTYPE svg PUBLIC "-//W3C//DTD SVG 20010904//EN"
 "http://www.w3.org/TR/2001/REC-SVG-20010904/DTD/svg10.dtd">
<svg version="1.0" xmlns="http://www.w3.org/2000/svg"
 width="512.000000pt" height="512.000000pt" viewBox="0 0 512.000000 512.000000"
 preserveAspectRatio="xMidYMid meet">
<metadata>
Created by potrace 1.11, written by Peter Selinger 2001-2013
</metadata>
<g transform="translate(0.000000,512.000000) scale(0.100000,-0.100000)"
fill="#000000" stroke="none">
<path d="M1215 5113 c-43 -11 -103 -64 -125 -108 -19 -38 -22 -64 -23 -177 -2
-125 -3 -133 -22 -135 -130 -18 -203 -51 -278 -126 -58 -58 -100 -135 -117
-212 -7 -35 -10 -667 -8 -2040 3 -1880 4 -1992 21 -2035 43 -110 140 -209 249
-253 l53 -22 1575 -3 c1554 -2 1576 -2 1641 18 129 39 239 150 281 282 17 57
18 121 18 1286 l0 1227 201 205 c110 112 211 223 224 245 126 218 44 490 -181
602 -60 29 -86 36 -158 40 l-86 6 0 192 c0 215 -8 276 -48 355 -63 126 -217
230 -342 230 l-35 0 -2 136 c-1 122 -4 141 -25 183 -62 120 -238 146 -338 50
-50 -49 -62 -94 -65 -239 -1 -63 -3 -118 -3 -121 -1 -3 -96 -6 -212 -5 l-210
0 -1 120 c-1 135 -3 156 -23 194 -61 117 -224 147 -329 61 -56 -46 -70 -88
-73 -219 -2 -63 -3 -124 -3 -136 -1 -20 -5 -21 -211 -21 -115 0 -210 3 -211 6
0 3 -2 62 -3 131 -2 137 -7 160 -42 207 -38 50 -87 75 -157 79 -76 4 -128 -17
-174 -69 -43 -50 -53 -91 -53 -233 l0 -121 -214 1 -214 0 1 132 c0 116 -3 137
-22 177 -43 89 -152 136 -256 110z"/>
</g>
</svg>
